<?xml version="1.0" encoding="utf-8"?>
<!-- Generator: Adobe Illustrator 21.1.0, SVG Export Plug-In . SVG Version: 6.00 Build 0)  -->
<svg version="1.1"
	 id="svg2" inkscape:version="0.91 r13725" sodipodi:docname="logo2.svg" xmlns:cc="http://creativecommons.org/ns#" xmlns:dc="http://purl.org/dc/elements/1.1/" xmlns:inkscape="http://www.inkscape.org/namespaces/inkscape" xmlns:rdf="http://www.w3.org/1999/02/22-rdf-syntax-ns#" xmlns:sodipodi="http://sodipodi.sourceforge.net/DTD/sodipodi-0.dtd" xmlns:svg="http://www.w3.org/2000/svg"
	 xmlns="http://www.w3.org/2000/svg" xmlns:xlink="http://www.w3.org/1999/xlink" x="0px" y="0px" viewBox="0 0 310.7 570.5"
	 style="enable-background:new 0 0 310.7 570.5;" xml:space="preserve">
<style type="text/css">
	.st0{fill:#8A0819;}
</style>
<sodipodi:namedview  bordercolor="#666666" borderopacity="1" gridtolerance="10" guidetolerance="10" id="namedview7" inkscape:current-layer="" inkscape:cx="52.74404" inkscape:cy="241.68009" inkscape:pageopacity="0" inkscape:pageshadow="2" inkscape:window-height="1598" inkscape:window-maximized="0" inkscape:window-width="1198" inkscape:window-x="1280" inkscape:window-y="0" inkscape:zoom="0.56123662" objecttolerance="10" pagecolor="#ffffff" showgrid="false">
	</sodipodi:namedview>
<g inkscape:groupmode="layer" inkscape:label="">
	<g id="g3353" transform="translate(22,0)">
		<path id="path3345" inkscape:connector-curvature="0" class="st0" d="M79.3,84.9c73.1,22.1,91.8,40.3,117.5,106.4
			C191.8,110.7,159.5,77.1,79.3,84.9C98.1,17,79.3,84.9,79.3,84.9z"/>
		<path id="path3343" inkscape:connector-curvature="0" class="st0" d="M-22,211.5c47.4,14.6,102.5,26.3,122.9,116.9
			C109.3,215.3,55.8,209.6-22,211.5C68.6-90.7-22,211.5-22,211.5z"/>
		<path id="path3341" inkscape:connector-curvature="0" class="st0" d="M10.1,139.4c71.3,14.7,116.7,34.1,143.3,126.1
			C159.4,146.8,94.3,134.9,10.1,139.4C88.4,8.2,10.1,139.4,10.1,139.4z"/>
		<path id="path5" inkscape:connector-curvature="0" class="st0" d="M103.5,0c389,253.7-86.4,258.1,17,552.6l61.2,17.8
			C13.1,341.8,557.1,224.3,103.5,0L103.5,0z"/>
	</g>
</g>
</svg>
